<?xml version="1.0" encoding="utf-8"?>
<!-- Generator: Adobe Illustrator 25.1.0, SVG Export Plug-In . SVG Version: 6.00 Build 0)  -->
<svg version="1.1" id="Calque_1" xmlns="http://www.w3.org/2000/svg" xmlns:xlink="http://www.w3.org/1999/xlink" x="0px" y="0px"
	 viewBox="0 0 150 40" style="enable-background:new 0 0 150 40;" xml:space="preserve">
<style type="text/css">
	.st0{fill:#1F3D89;stroke:#1F3D89;stroke-width:0.25;stroke-linecap:round;stroke-linejoin:round;}
	.st1{fill:url(#SVGID_1_);}
	.st2{fill:url(#SVGID_2_);}
</style>
<g>
	<path class="st0" d="M58.82,19.75c0-4.55,3.49-7.8,8.19-7.8c2.61,0,4.79,0.95,6.21,2.67l-2.24,2.07c-1.01-1.16-2.28-1.77-3.79-1.77
		c-2.82,0-4.83,1.98-4.83,4.83s2.01,4.83,4.83,4.83c1.51,0,2.78-0.6,3.79-1.79l2.24,2.07c-1.42,1.75-3.6,2.7-6.23,2.7
		C62.31,27.56,58.82,24.3,58.82,19.75z"/>
	<path class="st0" d="M75.34,11.3h3.36v16h-3.36V11.3z"/>
	<path class="st0" d="M81.42,12.21c0-1.06,0.84-1.88,2.09-1.88c1.25,0,2.09,0.78,2.09,1.81c0,1.12-0.84,1.94-2.09,1.94
		C82.27,14.08,81.42,13.27,81.42,12.21z M81.83,15.7h3.36v11.6h-3.36V15.7z"/>
	<path class="st0" d="M100.18,20.66v6.64h-3.36v-6.12c0-1.88-0.86-2.74-2.35-2.74c-1.62,0-2.78,0.99-2.78,3.13v5.73h-3.36V15.7h3.21
		v1.36c0.91-0.99,2.26-1.53,3.84-1.53C98.11,15.53,100.18,17.12,100.18,20.66z"/>
	<path class="st0" d="M102.82,12.21c0-1.06,0.84-1.88,2.09-1.88c1.25,0,2.09,0.78,2.09,1.81c0,1.12-0.84,1.94-2.09,1.94
		C103.66,14.08,102.82,13.27,102.82,12.21z M103.23,15.7h3.36v11.6h-3.36V15.7z"/>
	<path class="st0" d="M114.7,22.75l-1.62,1.6v2.95h-3.36v-16h3.36v9.05L118,15.7h4.01l-4.83,4.92l5.26,6.68h-4.07L114.7,22.75z"/>
	<path class="st0" d="M134,20.68v6.62h-3.15v-1.44c-0.62,1.06-1.83,1.62-3.54,1.62c-2.72,0-4.33-1.51-4.33-3.51
		c0-2.05,1.44-3.47,4.98-3.47h2.67c0-1.44-0.86-2.28-2.67-2.28c-1.23,0-2.5,0.41-3.34,1.08l-1.21-2.35c1.27-0.9,3.15-1.4,5-1.4
		C131.96,15.53,134,17.17,134,20.68z M130.64,23.63v-1.19h-2.31c-1.57,0-2.07,0.58-2.07,1.36c0,0.84,0.71,1.4,1.9,1.4
		C129.28,25.21,130.25,24.69,130.64,23.63z"/>
	<path class="st0" d="M137.05,11.3h3.36v16h-3.36V11.3z"/>
	<path class="st0" d="M143.54,11.3h3.36v16h-3.36V11.3z"/>
</g>
<g>
	<linearGradient id="SVGID_1_" gradientUnits="userSpaceOnUse" x1="3.7275" y1="20.1321" x2="25.8555" y2="20.1321">
		<stop  offset="0" style="stop-color:#1F3D8A"/>
		<stop  offset="0.45" style="stop-color:#3589C9"/>
		<stop  offset="1" style="stop-color:#7CCDED"/>
	</linearGradient>
	<path class="st1" d="M22.25,26.39c-1.39,1.08-3.02,1.63-4.87,1.63c-4.61,0-7.88-3.24-7.88-7.88c0-4.64,3.27-7.88,7.88-7.88
		c1.4,0,2.71,0.29,3.88,0.88l3.06-3.89c-2.02-1.2-4.47-1.85-7.22-1.85c-7.67,0-13.37,5.31-13.37,12.74c0,7.43,5.7,12.75,13.34,12.75
		c3.52,0,6.54-1.04,8.79-2.97L22.25,26.39z"/>
	<linearGradient id="SVGID_2_" gradientUnits="userSpaceOnUse" x1="23.6839" y1="19.2022" x2="41.8585" y2="19.2022">
		<stop  offset="0" style="stop-color:#066838"/>
		<stop  offset="0.45" style="stop-color:#52AE32"/>
		<stop  offset="1" style="stop-color:#A0C519"/>
	</linearGradient>
	<path class="st2" d="M36.37,6.14v14.79l-9.12-9.18l-3.56,3.29l4.58,4.9l-3.79,4.18l3.81,3.23l3.83-4.12l4.25,4.22v4.82h5.49V6.14
		H36.37z"/>
</g>
</svg>
